<?xml version="1.0" encoding="UTF-8"?><svg id="Layer_1" xmlns="http://www.w3.org/2000/svg" viewBox="0 0 1024 1024"><defs><style>.cls-1,.cls-2,.cls-3,.cls-4,.cls-5{fill:none;}.cls-6{fill:#cc0606;}.cls-2{opacity:.55;stroke-dasharray:17.07 17.07;stroke-width:8.53px;}.cls-2,.cls-3{isolation:isolate;}.cls-2,.cls-3,.cls-4,.cls-5{stroke:#fdfcf9;stroke-miterlimit:34.13;}.cls-3{opacity:.45;stroke-width:9.39px;}.cls-7{fill:#1f78b4;}.cls-4{stroke-width:10.24px;}.cls-5{stroke-width:12.8px;}</style></defs><rect class="cls-1" y="0" width="1024" height="1024"/><circle class="cls-3" cx="85.33" cy="256" r="34.13"/><circle class="cls-3" cx="187.73" cy="187.73" r="42.67"/><circle class="cls-3" cx="102.4" cy="426.67" r="38.4"/><circle class="cls-3" cx="221.87" cy="392.53" r="34.13"/><circle class="cls-3" cx="85.33" cy="631.47" r="34.13"/><circle class="cls-3" cx="187.73" cy="716.8" r="42.67"/><circle class="cls-3" cx="256" cy="546.13" r="34.13"/><circle class="cls-2" cx="170.67" cy="512" r="85.33"/><circle class="cls-7" cx="170.67" cy="512" r="55.47"/><line class="cls-4" x1="230.4" y1="512" x2="392.53" y2="512"/><line class="cls-5" x1="392.53" y1="512" x2="989.87" y2="512"/><rect class="cls-6" x="426.67" y="426.67" width="38.4" height="85.33"/><rect class="cls-6" x="494.93" y="341.33" width="38.4" height="170.67"/><rect class="cls-6" x="563.2" y="238.93" width="38.4" height="273.07"/><rect class="cls-7" x="631.47" y="512" width="38.4" height="119.47"/><rect class="cls-7" x="699.73" y="512" width="38.4" height="221.87"/><rect class="cls-6" x="768" y="358.4" width="38.4" height="153.6"/><rect class="cls-6" x="836.27" y="256" width="38.4" height="256"/><rect class="cls-6" x="904.53" y="409.6" width="38.4" height="102.4"/></svg>